<?xml version="1.0" encoding="UTF-8"?>
<svg width="324px" height="322px" viewBox="0 0 324 322" version="1.1" xmlns="http://www.w3.org/2000/svg" xmlns:xlink="http://www.w3.org/1999/xlink">
    <!-- Generator: Sketch 43.2 (39069) - http://www.bohemiancoding.com/sketch -->
    <title>logo</title>
    <desc>Created with Sketch.</desc>
    <defs></defs>
    <g id="Page-1" stroke="none" stroke-width="1" fill="none" fill-rule="evenodd">
        <g id="logo" transform="translate(-12.000000, -14.000000)" fill="#000000">
            <g id="Group" transform="translate(38.066554, 128.426018) rotate(-70.050782) translate(-38.066554, -128.426018) translate(13.566565, 97.426030)" font-size="50.127" font-family="Helvetica" font-weight="normal">
                <text id="W">
                    <tspan x="0.750999688" y="49.3439999">W</tspan>
                </text>
            </g>
            <g id="Group" transform="translate(68.856423, 77.454781) rotate(-46.768688) translate(-68.856423, -77.454781) translate(61.356428, 46.454799)" font-size="50.127" font-family="Helvetica" font-weight="normal">
                <text id="I">
                    <tspan x="0.0179999898" y="49.2959998">I</tspan>
                </text>
            </g>
            <g id="Group" transform="translate(109.114773, 47.579969) rotate(-26.746312) translate(-109.114773, -47.579969) translate(90.114814, 16.579980)" font-size="50.127" font-family="Helvetica" font-weight="normal">
                <text id="C">
                    <tspan x="0.202999565" y="49.031">C</tspan>
                </text>
            </g>
            <g id="Group" transform="translate(168.621701, 32.221703) rotate(-1.963395) translate(-168.621701, -32.221703) translate(149.621699, 1.221701)" font-size="50.127" font-family="Helvetica" font-weight="normal">
                <text id="H">
                    <tspan x="0.0170000014" y="49.232">H</tspan>
                </text>
            </g>
            <g id="Group" transform="translate(228.700485, 42.577525) rotate(22.996394) translate(-228.700485, -42.577525) translate(209.700494, 11.577540)" font-size="50.127" font-family="Helvetica" font-weight="normal">
                <text id="N">
                    <tspan x="0.551999733" y="49.8519996">N</tspan>
                </text>
            </g>
            <g id="Group" transform="translate(271.025917, 70.748354) rotate(43.323647) translate(-271.025917, -70.748354) translate(263.525913, 39.748338)" font-size="50.127" font-family="Helvetica" font-weight="normal">
                <text id="I">
                    <tspan x="0.137000067" y="49.1980001">I</tspan>
                </text>
            </g>
            <g id="Group" transform="translate(301.614219, 111.891751) rotate(64.028424) translate(-301.614219, -111.891751) translate(281.614228, 80.891765)" font-size="50.127" font-family="Helvetica" font-weight="normal">
                <text id="O">
                    <tspan x="0.319999853" y="49.2199999">O</tspan>
                </text>
            </g>
            <g id="Group" transform="translate(316.153853, 179.545225) rotate(92.605135) translate(-316.153853, -179.545225) translate(291.653865, 148.545241)" font-size="50.127" font-family="Helvetica" font-weight="normal">
                <text id="W">
                    <tspan x="0.472999763" y="49.1169999">W</tspan>
                </text>
            </g>
            <g id="Group" transform="translate(297.966176, 245.997245) rotate(120.349876) translate(-297.966176, -245.997245) translate(280.466176, 214.997246)" font-size="50.127" font-family="Helvetica" font-weight="normal">
                <text id="S">
                    <tspan x="0.924999966" y="49.59">S</tspan>
                </text>
            </g>
            <g id="Group" transform="translate(257.210362, 291.685389) rotate(145.014087) translate(-257.210362, -291.685389) translate(239.710362, 260.685391)" font-size="50.127" font-family="Helvetica" font-weight="normal">
                <text id="K">
                    <tspan x="0.176999992" y="49.842">K</tspan>
                </text>
            </g>
            <g id="Group" transform="translate(209.838528, 313.454671) rotate(165.418667) translate(-209.838528, -313.454671) translate(202.338530, 282.454679)" font-size="50.127" font-family="Helvetica" font-weight="normal">
                <text id="I">
                    <tspan x="0.00999999748" y="49.3279999">I</tspan>
                </text>
            </g>
            <polygon id="Shape" points="47.821 175.324 47.823 175.73 47.826 176.136 47.83 176.541 47.836 176.946 47.843 177.35 47.852 177.755 47.861 178.159 47.872 178.562 47.884 178.965 47.898 179.368 47.912 179.771 47.928 180.173 47.945 180.574 47.964 180.976 47.983 181.377 48.004 181.778 48.027 182.178 48.05 182.578 48.075 182.977 48.101 183.376 48.128 183.776 48.156 184.174 48.186 184.572 48.217 184.97 48.249 185.367 48.282 185.764 48.317 186.16 48.353 186.557 48.39 186.952 48.428 187.347 48.467 187.743 48.508 188.138 48.55 188.532 48.593 188.926 48.638 189.319 48.683 189.712 48.73 190.106 48.778 190.497 48.827 190.889 48.877 191.281 48.929 191.672 48.982 192.063 49.036 192.453 49.091 192.843 49.147 193.232 49.205 193.622 49.264 194.011 49.324 194.399 49.385 194.787 49.447 195.174 49.511 195.561 49.575 195.948 49.641 196.334 49.708 196.72 49.777 197.105 49.846 197.49 49.916 197.875 49.988 198.26 50.061 198.644 50.135 199.026 50.21 199.409 50.287 199.792 50.364 200.174 50.443 200.555 50.523 200.937 50.604 201.318 50.686 201.698 50.769 202.077 50.854 202.457 50.94 202.836 51.026 203.214 51.114 203.592 51.203 203.97 51.293 204.347 51.385 204.724 51.477 205.101 51.571 205.476 51.665 205.851 51.761 206.226 51.858 206.601 51.956 206.975 52.056 207.349 52.156 207.722 52.257 208.094 52.36 208.466 52.464 208.838 52.568 209.209 52.674 209.58 52.781 209.951 52.889 210.32 52.999 210.69 53.109 211.059 53.22 211.427 53.333 211.794 53.447 212.162 53.561 212.529 53.677 212.896 53.794 213.261 53.912 213.627 54.031 213.992 54.152 214.356 54.273 214.721 54.395 215.084 54.519 215.447 54.643 215.809 54.769 216.172 54.896 216.533 55.023 216.894 55.152 217.255 55.282 217.615 55.413 217.974 55.545 218.332 55.678 218.691 55.813 219.049 55.948 219.407 56.084 219.764 56.221 220.12 56.36 220.476 56.499 220.831 56.64 221.186 56.781 221.54 56.924 221.895 57.068 222.248 57.212 222.6 57.358 222.952 57.505 223.304 57.653 223.655 57.802 224.006 57.952 224.356 58.103 224.705 58.255 225.054 58.408 225.402 58.562 225.75 58.717 226.098 58.873 226.445 59.03 226.79 59.188 227.135 59.348 227.481 59.508 227.826 59.669 228.17 59.831 228.513 59.994 228.855 60.159 229.198 60.324 229.539 60.49 229.88 60.658 230.221 60.826 230.561 60.995 230.9 61.165 231.239 61.337 231.577 61.509 231.914 61.682 232.252 61.856 232.588 62.032 232.924 62.208 233.26 62.385 233.594 62.563 233.928 62.742 234.261 62.923 234.594 63.104 234.927 63.286 235.259 63.469 235.59 63.653 235.92 63.838 236.249 64.024 236.579 64.211 236.908 64.399 237.235 64.588 237.563 64.778 237.89 64.969 238.216 65.16 238.541 65.353 238.866 65.547 239.191 65.741 239.514 65.937 239.838 66.134 240.16 66.331 240.482 66.529 240.802 66.729 241.123 66.93 241.443 67.131 241.762 67.333 242.081 67.536 242.399 67.74 242.716 67.945 243.032 68.151 243.349 68.358 243.664 68.566 243.979 68.775 244.293 68.984 244.606 69.195 244.918 69.406 245.231 69.619 245.542 69.832 245.853 70.046 246.163 70.261 246.472 70.477 246.781 70.694 247.089 70.912 247.396 71.131 247.703 71.35 248.009 71.571 248.315 71.793 248.619 72.015 248.923 72.238 249.226 72.462 249.528 72.687 249.83 72.913 250.132 73.14 250.432 73.367 250.731 73.596 251.031 73.826 251.329 74.056 251.627 74.287 251.924 74.519 252.22 74.752 252.515 74.986 252.81 75.22 253.104 75.456 253.398 75.693 253.691 75.93 253.982 76.168 254.273 76.407 254.564 76.647 254.854 76.887 255.142 77.129 255.431 77.372 255.719 77.615 256.005 77.859 256.292 78.104 256.577 78.349 256.861 78.596 257.145 78.844 257.428 79.092 257.711 79.341 257.992 79.591 258.273 79.842 258.553 80.094 258.833 80.345 259.111 80.599 259.389 80.853 259.666 81.108 259.942 81.364 260.218 81.62 260.493 81.877 260.766 82.136 261.04 82.395 261.313 82.655 261.584 82.915 261.855 83.176 262.125 83.439 262.395 83.702 262.663 83.966 262.931 84.23 263.197 84.495 263.464 84.762 263.729 85.029 263.994 85.296 264.258 85.565 264.521 85.834 264.783 86.105 265.044 86.375 265.305 86.647 265.564 86.92 265.824 87.193 266.082 87.467 266.339 87.742 266.596 88.017 266.852 88.293 267.106 88.57 267.36 88.848 267.614 89.126 267.866 89.406 268.118 89.686 268.369 89.967 268.618 90.249 268.868 90.531 269.116 90.814 269.364 91.098 269.61 91.382 269.856 91.668 270.101 91.954 270.345 92.241 270.588 92.528 270.83 92.816 271.071 93.106 271.313 93.396 271.553 93.686 271.792 93.978 272.03 94.269 272.267 94.561 272.503 94.855 272.739 95.149 272.973 95.444 273.208 95.74 273.441 96.035 273.672 96.332 273.903 96.63 274.134 96.928 274.363 97.227 274.592 97.527 274.82 97.828 275.047 98.129 275.272 98.431 275.498 98.733 275.722 99.036 275.945 99.34 276.167 99.645 276.389 99.95 276.609 100.256 276.829 100.562 277.047 100.87 277.266 101.178 277.483 101.487 277.698 101.796 277.914 102.106 278.128 102.416 278.341 102.729 278.554 103.04 278.765 103.353 278.975 103.666 279.185 103.98 279.394 104.295 279.602 104.61 279.809 104.926 280.015 105.243 280.22 105.56 280.424 105.878 280.627 106.196 280.829 106.516 281.03 106.836 281.231 107.156 281.43 107.477 281.629 107.799 281.826 108.122 282.023 108.445 282.218 108.768 282.413 109.093 282.607 109.417 282.799 109.742 282.991 110.069 283.182 110.397 283.372 110.723 283.561 111.05 283.748 111.38 283.936 111.709 284.122 112.039 284.307 112.37 284.491 112.701 284.674 113.032 284.856 113.365 285.038 113.697 285.217 114.03 285.397 114.365 285.575 114.699 285.752 115.034 285.928 115.371 286.104 115.707 286.278 116.044 286.451 116.383 286.624 116.72 286.795 117.058 286.965 117.397 287.134 117.738 287.303 118.078 287.47 118.419 287.636 118.761 287.801 119.104 287.966 119.447 288.129 119.789 288.291 120.133 288.452 120.478 288.613 120.823 288.772 121.169 288.93 121.515 289.087 121.861 289.243 122.208 289.398 122.556 289.552 122.905 289.706 123.255 289.858 123.603 290.008 123.952 290.158 124.303 290.307 124.655 290.455 125.006 290.602 125.359 290.748 125.711 290.892 126.064 291.036 126.419 291.179 126.773 291.32 127.127 291.461 127.482 291.6 127.838 291.739 128.195 291.876 128.552 292.012 128.909 292.148 129.267 292.282 129.626 292.415 129.984 292.547 130.343 292.678 130.705 292.808 131.065 292.937 131.425 293.065 131.787 293.191 132.149 293.317 132.511 293.441 132.875 293.565 133.238 293.687 133.602 293.809 133.967 293.929 134.332 294.048 134.697 294.166 135.062 294.283 135.43 294.399 135.797 294.514 136.164 294.627 136.532 294.74 136.9 294.851 137.269 294.962 137.638 295.071 138.007 295.179 138.378 295.286 138.749 295.392 139.121 295.497 139.492 295.601 139.864 295.703 140.237 295.804 140.61 295.905 140.983 296.004 141.357 296.102 141.732 296.199 142.107 296.295 142.483 296.39 142.858 296.483 143.234 296.576 143.611 296.667 143.989 296.757 144.366 296.846 144.744 296.934 145.123 297.021 145.501 297.106 145.881 297.191 146.261 297.274 146.641 297.356 147.022 297.438 147.402 297.517 147.785 297.596 148.167 297.674 148.549 297.75 148.932 297.825 149.315 297.899 149.699 297.972 150.083 298.044 150.468 298.114 150.853 298.184 151.239 298.252 151.624 298.319 152.01 298.385 152.397 298.45 152.784 298.513 153.171 298.576 153.559 298.637 153.948 298.697 154.338 298.756 154.725 298.813 155.115 298.869 155.506 298.925 155.895 298.979 156.286 299.031 156.677 299.083 157.069 299.133 157.462 299.183 157.853 299.231 158.246 299.277 158.639 299.323 159.033 299.367 159.426 299.41 159.82 299.452 160.216 299.493 160.611 299.533 161.006 299.571 161.401 299.608 161.798 299.644 162.195 299.678 162.592 299.712 162.99 299.744 163.386 299.775 163.784 299.804 164.183 299.833 164.583 299.86 164.982 299.886 165.381 299.911 165.781 299.934 166.18 299.956 166.581 299.977 166.982 299.997 167.384 300.015 167.786 300.032 168.188 300.048 168.59 300.063 168.993 300.076 169.396 300.089 169.8 300.099 170.203 300.109 170.608 300.117 171.013 300.124 171.417 300.13 171.823 300.135 172.229 300.138 172.634 300.14 173.069 300.14 173.013 335.945 172.521 335.945 172.001 335.942 171.483 335.938 170.964 335.932 170.445 335.925 169.928 335.916 169.411 335.905 168.893 335.893 168.376 335.879 167.859 335.863 167.344 335.846 166.828 335.828 166.312 335.807 165.798 335.785 165.283 335.761 164.769 335.736 164.256 335.709 163.742 335.681 163.229 335.651 162.716 335.619 162.204 335.586 161.693 335.551 161.182 335.515 160.671 335.477 160.159 335.437 159.649 335.396 159.14 335.353 158.631 335.308 158.122 335.262 157.613 335.215 157.105 335.166 156.598 335.115 156.092 335.063 155.585 335.009 155.077 334.953 154.572 334.896 154.068 334.838 153.562 334.778 153.057 334.716 152.554 334.653 152.051 334.588 151.548 334.521 151.046 334.454 150.542 334.384 150.042 334.313 149.541 334.241 149.039 334.166 148.54 334.091 148.041 334.014 147.541 333.935 147.042 333.855 146.544 333.773 146.047 333.69 145.549 333.605 145.053 333.519 144.557 333.431 144.061 333.342 143.566 333.251 143.071 333.158 142.578 333.065 142.084 332.969 141.591 332.872 141.098 332.774 140.607 332.674 140.116 332.573 139.624 332.47 139.134 332.366 138.644 332.26 138.155 332.153 137.667 332.044 137.178 331.933 136.691 331.822 136.203 331.708 135.717 331.594 135.231 331.478 134.746 331.36 134.261 331.241 133.776 331.12 133.293 330.998 132.81 330.875 132.328 330.75 131.846 330.624 131.365 330.496 130.884 330.366 130.404 330.236 129.924 330.103 129.445 329.97 128.967 329.835 128.49 329.698 128.013 329.561 127.536 329.421 127.059 329.28 126.584 329.138 126.11 328.994 125.636 328.849 125.162 328.703 124.689 328.555 124.218 328.406 123.746 328.255 123.275 328.103 122.804 327.949 122.335 327.795 121.866 327.639 121.397 327.481 120.93 327.322 120.463 327.161 119.996 326.999 119.531 326.836 119.065 326.671 118.6 326.505 118.138 326.338 117.675 326.169 117.211 325.999 116.749 325.827 116.289 325.655 115.828 325.48 115.368 325.305 114.909 325.128 114.451 324.95 113.993 324.77 113.535 324.589 113.079 324.406 112.624 324.223 112.169 324.038 111.714 323.851 111.261 323.663 110.808 323.474 110.356 323.284 109.905 323.092 109.453 322.899 109.003 322.704 108.553 322.508 108.106 322.312 107.658 322.113 107.211 321.914 106.764 321.712 106.318 321.51 105.873 321.306 105.429 321.101 104.986 320.895 104.543 320.688 104.1 320.479 103.659 320.268 103.218 320.057 102.779 319.844 102.34 319.63 101.901 319.415 101.465 319.199 101.028 318.981 100.591 318.761 100.155 318.54 99.722 318.319 99.287 318.096 98.854 317.872 98.423 317.647 97.991 317.42 97.559 317.191 97.131 316.962 96.702 316.732 96.272 316.499 95.845 316.267 95.419 316.032 94.992 315.797 94.568 315.56 94.143 315.322 93.72 315.083 93.298 314.842 92.875 314.6 92.453 314.357 92.033 314.113 91.615 313.868 91.196 313.621 90.777 313.373 90.36 313.124 89.944 312.873 89.528 312.622 89.114 312.369 88.7 312.115 88.288 311.86 87.875 311.603 87.464 311.346 87.054 311.087 86.644 310.827 86.236 310.566 85.827 310.303 85.421 310.04 85.014 309.775 84.609 309.509 84.205 309.242 83.801 308.974 83.398 308.705 82.996 308.434 82.594 308.162 82.195 307.889 81.796 307.615 81.397 307.34 81 307.063 80.603 306.785 80.207 306.506 79.812 306.227 79.418 305.946 79.025 305.663 78.632 305.38 78.241 305.095 77.851 304.81 77.461 304.523 77.073 304.235 76.685 303.946 76.298 303.655 75.912 303.364 75.527 303.072 75.143 302.778 74.759 302.483 74.378 302.188 73.996 301.891 73.615 301.592 73.236 301.293 72.857 300.993 72.479 300.691 72.103 300.389 71.727 300.085 71.351 299.78 70.978 299.475 70.605 299.168 70.233 298.86 69.862 298.551 69.492 298.241 69.122 297.929 68.753 297.616 68.386 297.303 68.02 296.989 67.654 296.673 67.29 296.356 66.927 296.039 66.564 295.72 66.203 295.4 65.842 295.079 65.482 294.757 65.124 294.434 64.766 294.11 64.41 293.785 64.053 293.458 63.698 293.131 63.345 292.802 62.992 292.473 62.64 292.142 62.289 291.811 61.94 291.479 61.591 291.145 61.243 290.811 60.896 290.475 60.55 290.138 60.206 289.801 59.862 289.462 59.519 289.122 59.177 288.782 58.837 288.44 58.497 288.097 58.158 287.753 57.82 287.408 57.484 287.063 57.149 286.716 56.814 286.368 56.48 286.019 56.147 285.669 55.816 285.319 55.486 284.967 55.156 284.614 54.828 284.26 54.501 283.905 54.174 283.549 53.85 283.193 53.525 282.835 53.202 282.476 52.88 282.117 52.559 281.756 52.239 281.395 51.92 281.032 51.603 280.669 51.286 280.304 50.97 279.939 50.656 279.572 50.342 279.205 50.03 278.836 49.719 278.467 49.409 278.097 49.099 277.726 48.792 277.354 48.484 276.981 48.179 276.607 47.874 276.231 47.57 275.856 47.268 275.479 46.966 275.101 46.666 274.723 46.367 274.344 46.069 273.963 45.772 273.581 45.476 273.199 45.181 272.816 44.888 272.432 44.595 272.046 44.304 271.66 44.013 271.274 43.725 270.886 43.437 270.498 43.15 270.108 42.864 269.717 42.579 269.325 42.296 268.934 42.014 268.54 41.733 268.146 41.453 267.751 41.174 267.355 40.896 266.959 40.62 266.561 40.344 266.163 40.07 265.763 39.797 265.363 39.526 264.963 39.255 264.56 38.985 264.157 38.717 263.754 38.45 263.349 38.184 262.944 37.92 262.538 37.656 262.131 37.393 261.723 37.132 261.314 36.873 260.905 36.613 260.494 36.356 260.083 36.1 259.671 35.844 259.258 35.59 258.844 35.338 258.429 35.086 258.015 34.836 257.598 34.587 257.181 34.339 256.763 34.092 256.344 33.846 255.924 33.602 255.504 33.36 255.084 33.118 254.661 32.877 254.239 32.638 253.816 32.4 253.391 32.163 252.965 31.927 252.539 31.693 252.113 31.46 251.686 31.228 251.258 30.998 250.828 30.768 250.398 30.54 249.967 30.314 249.536 30.088 249.104 29.863 248.67 29.641 248.237 29.419 247.803 29.198 247.367 28.98 246.932 28.761 246.494 28.545 246.056 28.33 245.619 28.116 245.18 27.903 244.739 27.691 244.299 27.481 243.858 27.272 243.415 27.065 242.973 26.858 242.529 26.654 242.085 26.45 241.64 26.247 241.194 26.046 240.748 25.847 240.301 25.648 239.853 25.451 239.404 25.256 238.955 25.061 238.504 24.868 238.054 24.676 237.603 24.486 237.151 24.297 236.698 24.109 236.244 23.922 235.789 23.737 235.334 23.554 234.879 23.371 234.422 23.19 233.965 23.011 233.508 22.832 233.049 22.655 232.59 22.48 232.13 22.305 231.67 22.133 231.209 21.961 230.747 21.791 230.285 21.622 229.821 21.455 229.357 21.289 228.893 21.124 228.428 20.961 227.962 20.799 227.496 20.639 227.029 20.479 226.561 20.322 226.092 20.165 225.623 20.011 225.154 19.857 224.683 19.705 224.212 19.554 223.741 19.405 223.269 19.257 222.796 19.111 222.323 18.966 221.848 18.822 221.373 18.68 220.898 18.539 220.422 18.4 219.946 18.262 219.469 18.125 218.991 17.99 218.513 17.857 218.034 17.725 217.554 17.594 217.074 17.465 216.593 17.337 216.112 17.21 215.63 17.085 215.148 16.962 214.665 16.84 214.182 16.719 213.697 16.6 213.212 16.483 212.727 16.366 212.241 16.252 211.755 16.139 211.268 16.027 210.78 15.917 210.292 15.808 209.804 15.7 209.314 15.595 208.824 15.49 208.334 15.388 207.843 15.286 207.352 15.186 206.859 15.088 206.367 14.991 205.874 14.896 205.38 14.802 204.886 14.71 204.392 14.619 203.897 14.529 203.402 14.441 202.905 14.355 202.409 14.271 201.912 14.187 201.414 14.106 200.916 14.025 200.417 13.947 199.918 13.869 199.418 13.794 198.918 13.72 198.418 13.647 197.917 13.576 197.415 13.507 196.913 13.439 196.41 13.373 195.908 13.308 195.405 13.245 194.901 13.183 194.396 13.123 193.891 13.064 193.386 13.007 192.88 12.952 192.374 12.898 191.867 12.846 191.36 12.795 190.853 12.746 190.345 12.698 189.836 12.652 189.328 12.608 188.819 12.565 188.309 12.524 187.799 12.484 187.288 12.446 186.777 12.409 186.266 12.375 185.754 12.341 185.242 12.31 184.729 12.28 184.216 12.251 183.703 12.224 183.19 12.199 182.675 12.175 182.161 12.153 181.646 12.133 181.13 12.114 180.615 12.097 180.099 12.081 179.582 12.068 179.065 12.055 178.548 12.045 178.031 12.036 177.512 12.028 176.994 12.022 176.476 12.018 175.957 12.016 175.438 12.015 174.946 47.82 174.89"></polygon>
            <polygon id="Shape" points="245.307 115.533 84.827 288.962 59.51 263.644 232.938 103.165"></polygon>
            <polygon id="Shape" points="213.729 225.599 124.073 328.208 98.754 302.89 201.36 213.232"></polygon>
            <polygon id="Shape" points="139.038 143.312 45.581 249.717 20.265 224.399 126.669 130.944"></polygon>
        </g>
    </g>
</svg>